<?xml version="1.0" encoding="utf-8"?>
<!-- Generator: Adobe Illustrator 19.1.0, SVG Export Plug-In . SVG Version: 6.00 Build 0)  -->
<svg version="1.1" id="Layer_1" xmlns="http://www.w3.org/2000/svg" xmlns:xlink="http://www.w3.org/1999/xlink" x="0px" y="0px"
	 viewBox="0 0 657.2 218.7" style="enable-background:new 0 0 657.2 218.7;" xml:space="preserve">
<style type="text/css">
	.st0{fill:#FFFFFF;}
	.st1{font-family:'OpenSans';}
	.st2{font-size:98.2246px;}
</style>
<g>
	<path class="st0" d="M62.6,123.5c-6.2-7.6-13.4-15.4-21.9-23.5C20.3,80.4,9.6,63.2,6.1,44.2L6,43.6c-0.3-1.8-0.5-2.7-1.5-3.9
		c-0.6-0.7-1.2-1-1.9-1c-0.7,0.1-1.3,0.5-1.5,0.8c-1,1.6-1.2,3-1.2,6.4c-0.1,21,1.2,45.1,17,65.4c3.8,4.8,9.6,11.3,15.8,18.2
		c6.1,6.8,12.7,14.1,18.4,21.1c0.4-1.5,0.7-3,1.2-4.5C54.7,138.4,58.1,131,62.6,123.5z"/>
	<path class="st0" d="M66.6,173.5c8.9,16.6,13.5,28.3,15.6,39.5c1,5.2,1.9,5.6,2.9,5.6c2.3,0,3.1-3.8,3.4-6
		c1.5-13.7,2.7-31.5-2.1-46.8c-1.8-5.9-4.2-11.7-7.3-17.5c-0.2,0.4-0.5,0.8-0.7,1.1C73.2,158.9,69.3,166.6,66.6,173.5z"/>
	<path class="st0" d="M117.3,97.8c14.2-18.2,15.3-39.8,15.2-58.6c0-3-0.2-4.2-1.1-5.7c-0.1-0.2-0.6-0.6-1.2-0.6c0,0-0.1,0-0.1,0
		c-0.5,0-1,0.3-1.4,0.8c-0.9,1.1-1,1.8-1.3,3.4l-0.1,0.5c-3.1,17.1-12.7,32.6-31.1,50.2c-0.6,0.6-1.2,1.1-1.8,1.7
		c5,6.8,9.2,13.5,12.5,20.2C111,105.3,114.7,101.1,117.3,97.8z"/>
	<path class="st0" d="M84.7,129.9c-2.7-4.8-6.9-10.4-11.7-16.3c-2.5,3.3-4.7,6.5-6.7,9.7c-0.3,0.5-0.6,0.9-0.8,1.4
		c-0.3,0.5-0.6,0.9-0.8,1.4c-4.1,7-7.2,13.9-9.4,20.9c-0.7,2.2-1.2,4.4-1.6,6.6c-0.1,0.7-0.2,1.3-0.4,2c-0.1,0.7-0.2,1.4-0.3,2
		c-1.5,10.8-0.6,22.1,0.4,31.3c0.2,2,0.9,5.3,2.9,5.3c0.9,0,1.6-0.4,2.5-4.9c0.9-4.9,2.4-9.9,4.5-15.5c0.2-0.6,0.5-1.2,0.7-1.8
		c0.2-0.6,0.5-1.2,0.7-1.8c2.7-6.4,6.3-13.6,11.1-22.1c0.5-0.9,1.1-1.8,1.6-2.7c0.3-0.5,0.6-0.9,0.9-1.4c0.3-0.5,0.6-0.9,0.9-1.4
		c2.1-2.9,4.5-6.1,7.1-9.3C85.9,132,85.4,131,84.7,129.9z"/>
	<path class="st0" d="M110.7,127.1c-1.2-4-2.7-7.9-4.5-11.8c-0.2-0.5-0.5-1-0.7-1.5c-0.2-0.5-0.5-1-0.7-1.5
		c-3.3-6.8-7.5-13.6-12.5-20.5c-0.3-0.4-0.6-0.8-0.9-1.2c-0.3-0.4-0.6-0.8-0.9-1.2C83.6,80.3,75.1,71,65,61.3
		C44.5,41.7,33.8,24.5,30.4,5.5l-0.1-0.6C30,3,29.8,2.2,28.8,1c-0.5-0.6-1.1-1-1.7-1C27,0,27,0,27,0c-0.7,0.1-1.3,0.5-1.5,0.8l0,0
		c-1,1.6-1.2,3-1.2,6.4c-0.1,21,1.2,45.1,17,65.4C45,77.4,50.8,83.9,57,90.7c5.3,5.8,10.8,12,15.9,18c0.3,0.4,0.7,0.8,1,1.2
		c0.3,0.4,0.7,0.8,1,1.2c5.2,6.2,9.6,12.2,12.5,17.3c0.4,0.7,0.8,1.5,1.2,2.2c0.3,0.5,0.5,0.9,0.8,1.4c0.3,0.5,0.5,0.9,0.8,1.4
		c9.4,17.3,14.2,29.4,16.3,40.9c1,5.2,1.9,5.6,2.9,5.6c2.3,0,3.1-3.8,3.4-6C114.3,160.2,115.5,142.4,110.7,127.1z"/>
</g>
<text transform="matrix(1 0 0 1 182.3091 164.8276)" class="st0 st1 st2">Vefskólinn</text>
</svg>
